<svg xmlns="http://www.w3.org/2000/svg" width="20" height="20" fill="none" viewBox="0 0 20 20">
  <path fill="#21201F" d="m8.903 7.324 2.93 3.197 2.93-3.197 1.474 1.352-3.667 4h-1.474L8.167 9.479l-2.93 3.197-1.474-1.352 3.667-4h1.473Z"/>
  <path fill="#21201F" fill-rule="evenodd" d="M14 0c1.864 0 2.795 0 3.53.305a4 4 0 0 1 2.165 2.165C20 3.205 20 4.136 20 6v8c0 1.864 0 2.795-.305 3.53a4.001 4.001 0 0 1-2.165 2.165C16.795 20 15.863 20 14 20H6c-1.864 0-2.795 0-3.53-.305A4 4 0 0 1 .305 17.53C0 16.795 0 15.863 0 14V6c0-1.864 0-2.795.305-3.53A4 4 0 0 1 2.47.305C3.205 0 4.136 0 6 0h8ZM6 2c-.96 0-1.579 0-2.053.033-.456.031-.63.085-.713.12a2 2 0 0 0-1.082 1.081c-.034.084-.088.257-.119.713C2.001 4.421 2 5.041 2 6v8c0 .96 0 1.579.033 2.053.031.456.085.63.12.713a2 2 0 0 0 1.081 1.082c.084.034.257.088.713.119C4.421 17.999 5.041 18 6 18h8c.96 0 1.579 0 2.053-.033.456-.031.63-.085.713-.12a2 2 0 0 0 1.082-1.081c.034-.084.088-.257.119-.713.032-.474.033-1.094.033-2.053V6c0-.96 0-1.579-.033-2.053-.031-.456-.085-.63-.12-.713a2 2 0 0 0-1.081-1.082c-.084-.034-.257-.088-.713-.119C15.579 2.001 14.959 2 14 2H6Z" clip-rule="evenodd"/>
</svg>
