<svg width="24" height="24" viewBox="0 0 24 24" fill="none" xmlns="http://www.w3.org/2000/svg">
<path d="M10.9033 9.32422L13.833 12.5205L16.7627 9.32422L18.2373 10.6758L14.5703 14.6758H13.0957L10.167 11.4795L7.2373 14.6758L5.7627 13.3242L9.42969 9.32422H10.9033Z" fill="#959595"/>
<path fill-rule="evenodd" clip-rule="evenodd" d="M16 2C17.8635 2 18.7952 2.00034 19.5303 2.30469C20.5104 2.71066 21.2893 3.48961 21.6953 4.46973C21.9997 5.20476 22 6.1365 22 8V16C22 17.8635 21.9997 18.7952 21.6953 19.5303C21.2893 20.5104 20.5104 21.2893 19.5303 21.6953C18.7952 21.9997 17.8635 22 16 22H8C6.1365 22 5.20476 21.9997 4.46973 21.6953C3.48961 21.2893 2.71066 20.5104 2.30469 19.5303C2.00034 18.7952 2 17.8635 2 16L2 8C2 6.1365 2.00034 5.20476 2.30469 4.46973C2.71066 3.48961 3.48961 2.71066 4.46973 2.30469C5.20476 2.00034 6.1365 2 8 2L16 2ZM8 4C7.04075 4 6.42123 4.00086 5.94727 4.0332C5.49145 4.06432 5.31759 4.11788 5.23438 4.15234C4.74453 4.35533 4.35533 4.74453 4.15234 5.23438C4.11788 5.31759 4.06432 5.49145 4.0332 5.94727C4.00086 6.42123 4 7.04075 4 8L4 16C4 16.9592 4.00086 17.5788 4.0332 18.0527C4.06432 18.5086 4.11788 18.6824 4.15234 18.7656C4.35533 19.2555 4.74453 19.6447 5.23437 19.8477C5.31759 19.8821 5.49145 19.9357 5.94727 19.9668C6.42123 19.9991 7.04075 20 8 20H16C16.9592 20 17.5788 19.9991 18.0527 19.9668C18.5086 19.9357 18.6824 19.8821 18.7656 19.8477C19.2555 19.6447 19.6447 19.2555 19.8477 18.7656C19.8821 18.6824 19.9357 18.5086 19.9668 18.0527C19.9991 17.5788 20 16.9592 20 16V8C20 7.04075 19.9991 6.42123 19.9668 5.94727C19.9357 5.49145 19.8821 5.31759 19.8477 5.23438C19.6447 4.74453 19.2555 4.35533 18.7656 4.15234C18.6824 4.11788 18.5086 4.06432 18.0527 4.0332C17.5788 4.00086 16.9592 4 16 4L8 4Z" fill="#959595"/>
</svg>
