<svg xmlns="http://www.w3.org/2000/svg" width="20" height="21" fill="none" viewBox="0 0 20 21">
  <path fill="#959595" d="M11.9 0H8.06a2 2 0 0 0-2 1.54L6.01 2h8l-.11-.48a2 2 0 0 0-2-1.52ZM3.34 12H5a2 2 0 0 1 2 2H3a6.17 6.17 0 0 1 .34-2ZM15 12h1.65a5.91 5.91 0 0 1 .35 2h-4a2 2 0 0 1 2-2Z"/>
  <path fill="#959595" fill-rule="evenodd" d="M18.826 8.711c.149.443.296.883.434 1.289.485 1.437.735 2.943.74 4.46V21h-4l-1-2H5l-1 2H0v-6.64a14 14 0 0 1 .78-4.62c.56-1.71 1.35-3.99 1.56-4.42a3.22 3.22 0 0 1 2.18-1.71A25.6 25.6 0 0 1 10 3a25.6 25.6 0 0 1 5.48.66 3.19 3.19 0 0 1 2.17 1.71c.17.34.678 1.854 1.176 3.341ZM10 5a24 24 0 0 0-5 .56 1.23 1.23 0 0 0-.87.67l-.05.144c-.087.252-.297.866-.75 2.136A33.81 33.81 0 0 1 10 8a33.72 33.72 0 0 1 6.65.5l-.338-.963c-.336-.954-.452-1.282-.452-1.337a1.22 1.22 0 0 0-.81-.64A23.9 23.9 0 0 0 10 5Zm7.24 14H18v-4.54a12 12 0 0 0-.58-3.67c-.42-.18-2.25-.8-7.42-.8s-7.06.65-7.45.81A11.87 11.87 0 0 0 2 14.36V19h.76l1-2h12.48l.55 1.11.45.89Z" clip-rule="evenodd"/>
</svg>
