<svg width="24" height="24" viewBox="0 0 24 24" fill="none" xmlns="http://www.w3.org/2000/svg">
<path d="M13.9 1.00085H10.06C9.60043 0.988562 9.15064 1.13499 8.78637 1.41548C8.4221 1.69596 8.16559 2.09339 8.06001 2.54085L8.01001 3.00085H16.01L15.9 2.52085C15.7905 2.0771 15.5323 1.68424 15.1684 1.40768C14.8045 1.13111 14.3569 0.987538 13.9 1.00085Z" fill="#959595"/>
<path d="M5.34 13.0009H7C7.53043 13.0009 8.03914 13.2116 8.41421 13.5866C8.78929 13.9617 9 14.4704 9 15.0009H5C5.00221 14.32 5.11709 13.6442 5.34 13.0009Z" fill="#959595"/>
<path d="M17 13.0009H18.65C18.8812 13.6423 18.9996 14.319 19 15.0009H15C15 14.4704 15.2107 13.9617 15.5858 13.5866C15.9609 13.2116 16.4696 13.0009 17 13.0009Z" fill="#959595"/>
<path fill-rule="evenodd" clip-rule="evenodd" d="M20.8263 9.71109C20.9747 10.1538 21.1224 10.594 21.26 11C21.7455 12.4371 21.9954 13.9432 22 15.46V22H18L17 20H7.00001L6.00001 22H2.00001V15.36C1.99863 13.7871 2.26232 12.2253 2.78 10.74C3.34 9.03001 4.13 6.75001 4.34 6.32001C4.55319 5.89069 4.85954 5.51437 5.23668 5.21854C5.61383 4.9227 6.05227 4.7148 6.52001 4.61C8.31939 4.20997 10.1567 4.00545 12 4C13.8451 4.02186 15.6825 4.24315 17.48 4.66C17.9467 4.76415 18.3841 4.97189 18.7597 5.26788C19.1353 5.56388 19.4396 5.94054 19.65 6.37C19.8195 6.70906 20.3276 8.22395 20.8263 9.71109ZM12 6C10.3183 6.01097 8.64245 6.19867 7.00001 6.56C6.813 6.59665 6.63707 6.67625 6.48609 6.79253C6.33511 6.9088 6.21321 7.05856 6.13001 7.23C6.12486 7.24286 6.10978 7.28686 6.07982 7.37427C5.99336 7.62648 5.78301 8.24009 5.33001 9.50999C7.53101 9.11992 9.76528 8.94909 12 9C14.2277 8.94652 16.4553 9.11401 18.65 9.5C18.5181 9.12418 18.4061 8.80585 18.3115 8.53713C17.9757 7.58317 17.86 7.25461 17.86 7.2C17.78 7.0406 17.666 6.90068 17.526 6.7901C17.3861 6.67952 17.2236 6.60098 17.05 6.56C15.3914 6.19442 13.6985 6.0067 12 6ZM19.24 20H20V15.46C19.9984 14.214 19.8027 12.9758 19.42 11.79C19 11.61 17.17 10.99 12 10.99C6.83001 10.99 4.94001 11.64 4.55001 11.8C4.18663 12.9518 4.00116 14.1523 4.00001 15.36V20H4.76L5.76 18H18.24L18.79 19.11L19.24 20Z" fill="#959595"/>
</svg>
