<svg width="15" height="12" viewBox="0 0 15 12" fill="none" xmlns="http://www.w3.org/2000/svg">
<path d="M0.75 3H9.75M9.75 3C9.75 4.24264 10.7573 5.25 12 5.25C13.2427 5.25 14.25 4.24264 14.25 3C14.25 1.75736 13.2427 0.75 12 0.75C10.7573 0.75 9.75 1.75736 9.75 3ZM5.25 9H14.25M5.25 9C5.25 10.2427 4.24264 11.25 3 11.25C1.75736 11.25 0.75 10.2427 0.75 9C0.75 7.75732 1.75736 6.75 3 6.75C4.24264 6.75 5.25 7.75732 5.25 9Z" stroke="#21201F" stroke-width="1.5" stroke-linecap="round" stroke-linejoin="round"/>
</svg>
