<svg xmlns="http://www.w3.org/2000/svg" width="28" height="28" fill="none" viewBox="0 0 28 28">
  <path fill="#FC5230" d="M0 10C0 4.477 4.477 0 10 0h8c5.523 0 10 4.477 10 10v8c0 5.523-4.477 10-10 10h-8C4.477 28 0 23.523 0 18v-8Z"/>
  <path fill="#fff" fill-rule="evenodd" d="M11.621 7.25h4.758a1.5 1.5 0 0 1 1.06.44l2.872 2.87a1.5 1.5 0 0 1 .439 1.061v4.758a1.5 1.5 0 0 1-.44 1.06l-2.87 2.872a1.5 1.5 0 0 1-1.061.439h-4.758a1.5 1.5 0 0 1-1.06-.44l-2.872-2.87a1.5 1.5 0 0 1-.439-1.061v-4.758c0-.398.158-.78.44-1.06l2.87-2.872a1.5 1.5 0 0 1 1.061-.439Zm1.629 8.25-.188-6h1.876l-.188 6h-1.5Zm1.875 2.25a1.125 1.125 0 1 1-2.25 0 1.125 1.125 0 0 1 2.25 0Z" clip-rule="evenodd"/>
</svg>
