<svg width="15" height="15" viewBox="0 0 15 15" fill="none" xmlns="http://www.w3.org/2000/svg">
<path fill-rule="evenodd" clip-rule="evenodd" d="M7.5 0C5.51088 0 3.60322 0.790177 2.1967 2.1967C0.790177 3.60322 0 5.51088 0 7.5C0 9.48915 0.790177 11.3968 2.1967 12.8033C3.60322 14.2098 5.51088 15 7.5 15C9.48915 15 11.3968 14.2098 12.8033 12.8033C14.2098 11.3968 15 9.48915 15 7.5C15 5.51088 14.2098 3.60322 12.8033 2.1967C11.3968 0.790177 9.48915 0 7.5 0ZM6.75 10.875L11.625 6L10.5 4.875L6.75787 8.625L4.5 6.375L3.375 7.5L6.75 10.875Z" fill="#00CA50"/>
</svg>
