<svg xmlns="http://www.w3.org/2000/svg" width="24" height="24" fill="none" viewBox="0 0 24 24">
  <rect width="24" height="24" fill="#21201F" rx="8"/>
  <path fill="#fff" fill-rule="evenodd" d="M11.91 6.438c-.604 0-1.333.215-1.92.716-.606.517-1.026 1.311-1.026 2.384 0 1.897 1.374 3.324 2.945 3.324 1.571 0 2.945-1.427 2.945-3.324 0-1.073-.42-1.867-1.026-2.384a3.024 3.024 0 0 0-1.919-.716ZM7 16.403c0-1.865 1.638-2.898 4.91-2.898 3.27 0 4.908 1.033 4.908 2.898 0 .885-2.197 1.6-4.909 1.6-2.712 0-4.909-.715-4.909-1.6Z" clip-rule="evenodd"/>
</svg>
