<svg xmlns="http://www.w3.org/2000/svg" width="24" height="24" fill="none" viewBox="0 0 24 24">
  <g clip-path="url(#a)">
    <mask id="b" width="24" height="24" x="0" y="0" maskUnits="userSpaceOnUse" style="mask-type:luminance">
      <path fill="#fff" d="M0 0h24v24H0V0Z"/>
    </mask>
    <g mask="url(#b)">
      <path fill="#7999B6" d="M15.28 1.07a22.186 22.186 0 0 0-1.784-.783 4.089 4.089 0 0 0-2.989 0 31.367 31.367 0 0 0-4.294 2.035 30.366 30.366 0 0 0-3.488 2.422 4.072 4.072 0 0 0-1.53 2.858v.58l3.478 3.51L15.281 1.07Z"/>
      <path fill="#5C7B9E" d="m13.464 20.475 9.403-12.15c.082 1.018-.05-.65-.05-.722a4.062 4.062 0 0 0-1.54-2.86 32.01 32.01 0 0 0-3.488-2.38 26.776 26.776 0 0 0-2.51-1.293L4.672 11.694l8.792 8.781Z"/>
      <path fill="#4F6A8D" d="m15.707 22.706-7.057.163c-.592-.296-1.816-.907-2.438-1.273a26.407 26.407 0 0 1-2.336-1.515c-.398-.285-.795-.57-1.152-.855a4.07 4.07 0 0 1-1.54-2.87c0-.357 0-.743-.072-1.11A53.51 53.51 0 0 1 1 11.991c0-1.354.061-2.605.153-3.846l3.509 3.51 11.045 11.05Z"/>
      <path fill="#45586E" d="M23 11.99c0 1.547-.072 3.053-.184 4.365a4.064 4.064 0 0 1-1.54 2.87 30.377 30.377 0 0 1-5.58 3.48c-.683.325-1.51.702-2.203 1.017a4.09 4.09 0 0 1-2.988 0 25.129 25.129 0 0 1-2.458-1.109L22.826 7.828c.112 1.333.174 2.676.174 4.162Z"/>
    </g>
  </g>
  <defs>
    <clipPath id="a">
      <path fill="#fff" d="M0 0h24v24H0z"/>
    </clipPath>
  </defs>
</svg>
