<svg xmlns="http://www.w3.org/2000/svg" width="28" height="28" fill="none" viewBox="0 0 28 28">
  <path fill="#302F2D" d="M0 10C0 4.477 4.477 0 10 0h8c5.523 0 10 4.477 10 10v8c0 5.523-4.477 10-10 10h-8C4.477 28 0 23.523 0 18v-8Z"/>
  <path fill="#fff" fill-rule="evenodd" d="M15.711 7.243a2.344 2.344 0 0 0-3.423 0l-.027.03a2.34 2.34 0 0 1-1.79.741l-.04-.001a2.342 2.342 0 0 0-2.42 2.42l.002.039a2.342 2.342 0 0 1-.742 1.79l-.028.027a2.342 2.342 0 0 0 0 3.422l.028.028a2.34 2.34 0 0 1 .742 1.79l-.001.04a2.342 2.342 0 0 0 2.42 2.42l.039-.002a2.342 2.342 0 0 1 1.79.742l.027.029a2.342 2.342 0 0 0 3.422 0l.028-.029a2.338 2.338 0 0 1 1.79-.742l.04.002a2.341 2.341 0 0 0 2.42-2.42l-.002-.04a2.342 2.342 0 0 1 .742-1.79l.028-.028a2.343 2.343 0 0 0 0-3.422l-.028-.027a2.34 2.34 0 0 1-.742-1.79l.002-.039a2.343 2.343 0 0 0-2.42-2.42l-.04.001a2.34 2.34 0 0 1-1.79-.742l-.027-.029ZM13.25 17.376l4.875-4.875L17 11.376l-3.743 3.75L11 12.876 9.875 14l3.375 3.375Z" clip-rule="evenodd"/>
</svg>
