<svg xmlns="http://www.w3.org/2000/svg" width="24" height="24" fill="none" viewBox="0 0 24 24">
  <path fill="#8A8784" fill-rule="evenodd" d="M15.442 1.297a20.098 20.098 0 0 0-6.885 0c-3.872.673-5.743 1.658-6.62 2.545a2.94 2.94 0 0 0-.83 1.676c-.635 4.752 1.772 9.24 1.772 9.24a17.625 17.625 0 0 0 1.635 2.724L21.112 3.114c-1.086-.665-2.842-1.325-5.67-1.817Zm6.626 2.544a5.039 5.039 0 0 0-.952-.728l-16.6 14.368c2.14 2.935 4.678 4.496 6.183 5.22a3.006 3.006 0 0 0 2.61 0c1.913-.923 5.502-3.19 7.807-7.943 0 0 2.416-4.488 1.78-9.24a2.94 2.94 0 0 0-.828-1.677Z" clip-rule="evenodd"/>
  <path fill="#fff" fill-rule="evenodd" d="M10.5 8.5a1.5 1.5 0 1 1 3 0V10h-3V8.5Zm-1 1.563V8.5a2.5 2.5 0 0 1 5 0v1.563A2 2 0 0 1 16 12v2.5a2 2 0 0 1-2 2h-4a2 2 0 0 1-2-2V12a2 2 0 0 1 1.5-1.937Z" clip-rule="evenodd"/>
</svg>
