<svg xmlns="http://www.w3.org/2000/svg" width="11" height="11" fill="none" viewBox="0 0 11 11">
  <path fill="#FC3F1D" fill-rule="evenodd" d="M3.4 0h3.7c.31 0 .606.123.825.342l2.233 2.233c.219.219.342.515.342.825v3.7c0 .31-.123.606-.342.825l-2.233 2.233a1.167 1.167 0 0 1-.825.342H3.4c-.31 0-.606-.123-.825-.342L.342 7.925A1.167 1.167 0 0 1 0 7.1V3.4c0-.31.123-.606.342-.825L2.575.342C2.794.123 3.09 0 3.4 0Zm1.267 6.417L4.52 1.75h1.458l-.146 4.667H4.667Zm1.458 1.75a.875.875 0 1 1-1.75 0 .875.875 0 0 1 1.75 0Z" clip-rule="evenodd"/>
</svg>
