<svg xmlns="http://www.w3.org/2000/svg" width="24" height="24" fill="none" viewBox="0 0 24 24">
  <rect width="24" height="24" fill="#21201F" rx="8"/>
  <path fill="#fff" d="M11.91 7a15.13 15.13 0 0 1 3.238.39 1.888 1.888 0 0 1 1.284 1.01c.1.2.4 1.096.695 1.975l.256.762c.287.85.435 1.74.437 2.636v3.866h-2.364l-.59-1.183h-5.91l-.592 1.183H6v-3.925c0-.93.155-1.853.46-2.73.332-1.011.799-2.359.923-2.613a1.905 1.905 0 0 1 1.288-1.01A15.134 15.134 0 0 1 11.91 7Zm-3.936 5.32c-.132.38-.2.78-.202 1.182h2.365a1.183 1.183 0 0 0-1.182-1.183h-.981Zm6.891 0a1.183 1.183 0 0 0-1.182 1.182h2.364c0-.403-.07-.804-.206-1.183h-.976ZM11.71 8.181c-.994.006-1.984.117-2.955.33a.727.727 0 0 0-.515.397l-.029.085c-.051.15-.176.512-.443 1.263 1.3-.23 2.621-.332 3.942-.302a19.933 19.933 0 0 1 3.93.295c-.077-.222-.144-.41-.2-.568-.198-.564-.266-.76-.266-.791a.724.724 0 0 0-.48-.378c-.98-.216-1.98-.327-2.984-.331Z"/>
</svg>
