<svg width="15" height="15" viewBox="0 0 15 15" fill="none" xmlns="http://www.w3.org/2000/svg">
<path fill-rule="evenodd" clip-rule="evenodd" d="M7.5 0C5.51088 0 3.60322 0.790177 2.1967 2.1967C0.790177 3.60322 0 5.51088 0 7.5C0 9.48915 0.790177 11.3968 2.1967 12.8033C3.60322 14.2098 5.51088 15 7.5 15C9.48915 15 11.3968 14.2098 12.8033 12.8033C14.2098 11.3968 15 9.48915 15 7.5C15 5.51088 14.2098 3.60322 12.8033 2.1967C11.3968 0.790177 9.48915 0 7.5 0ZM3.96753 5.02835L6.43935 7.50015L3.96785 9.97162L5.02852 11.0323L7.5 8.5608L9.97147 11.0323L11.0321 9.97162L8.56065 7.50015L11.0325 5.02835L9.97178 3.96769L7.5 6.4395L5.02819 3.96769L3.96753 5.02835Z" fill="#21201F" fill-opacity="0.5"/>
</svg>
