<svg width="24" height="24" viewBox="0 0 24 24" fill="none" xmlns="http://www.w3.org/2000/svg">
<mask id="mask0_4359_91637" style="mask-type:luminance" maskUnits="userSpaceOnUse" x="0" y="0" width="24" height="24">
<path d="M0 0H24V24H0V0Z" fill="white"/>
</mask>
<g mask="url(#mask0_4359_91637)">
<path d="M13.2099 0.424992C12.8666 0.149901 12.4398 0 11.9999 0C11.5599 0 11.1332 0.149901 10.7899 0.424992C8.87848 1.94888 7.05614 3.58123 5.33186 5.31399C3.58618 7.06159 1.94152 8.90724 0.405861 10.842C0.143324 11.1649 0 11.5683 0 11.9845C0 12.4006 0.143324 12.8041 0.405861 13.127C1.18565 14.1115 1.98583 15.0797 2.80586 16.031L15.9969 2.78699C15.0869 1.93499 14.1579 1.17999 13.2099 0.424992Z" fill="#8A8784"/>
<path d="M18.7537 5.39916C18.7238 5.36444 18.6914 5.33202 18.6567 5.30216C17.7957 4.43611 16.9082 3.59671 15.9957 2.78516L2.80469 15.9812C3.62669 16.9012 4.46869 17.7912 5.33969 18.6632C5.36806 18.6863 5.39418 18.7121 5.41769 18.7402C6.27244 19.5966 7.15353 20.4263 8.05969 21.2282L21.2897 8.04216C20.4377 7.13216 19.6057 6.25216 18.7537 5.39916Z" fill="#8A8784"/>
<path d="M23.5955 10.841C22.843 9.88225 22.0586 8.94905 21.2435 8.04297L8.0625 21.228C8.9725 22.041 9.9105 22.835 10.8585 23.6C11.1834 23.8576 11.5859 23.9978 12.0005 23.9978C12.4151 23.9978 12.8176 23.8576 13.1425 23.6C15.0745 22.0544 16.9193 20.4028 18.6685 18.653C20.4145 16.9054 22.0595 15.0597 23.5955 13.125C23.8582 12.8022 24.0016 12.3987 24.0016 11.9825C24.0016 11.5663 23.8582 11.1628 23.5955 10.84V10.841Z" fill="#8A8784"/>
<path fill-rule="evenodd" clip-rule="evenodd" d="M10.5 9C10.5 8.60218 10.658 8.22064 10.9393 7.93934C11.2206 7.65804 11.6022 7.5 12 7.5C12.3978 7.5 12.7794 7.65804 13.0607 7.93934C13.342 8.22064 13.5 8.60218 13.5 9V10.5H10.5V9ZM9.5 10.563V9C9.5 8.33696 9.76339 7.70107 10.2322 7.23223C10.7011 6.76339 11.337 6.5 12 6.5C12.663 6.5 13.2989 6.76339 13.7678 7.23223C14.2366 7.70107 14.5 8.33696 14.5 9V10.563C14.9294 10.6739 15.3098 10.9243 15.5813 11.2749C15.8528 11.6256 16.0001 12.0565 16 12.5V15C16 15.5304 15.7893 16.0391 15.4142 16.4142C15.0391 16.7893 14.5304 17 14 17H10C9.46957 17 8.96086 16.7893 8.58579 16.4142C8.21071 16.0391 8 15.5304 8 15V12.5C7.99989 12.0565 8.14718 11.6256 8.41871 11.2749C8.69024 10.9243 9.0706 10.6739 9.5 10.563Z" fill="white"/>
</g>
</svg>
