<svg xmlns="http://www.w3.org/2000/svg" width="24" height="24" fill="none" viewBox="0 0 24 24">
  <path fill="#21201F" fill-rule="evenodd" d="M8.5 3c-.922 0-2.035.336-2.931 1.115C4.643 4.92 4 6.155 4 7.826 4 10.78 6.1 13 8.5 13S13 10.78 13 7.826c0-1.67-.643-2.906-1.569-3.711A4.568 4.568 0 0 0 8.5 3ZM6 7.826c0-1.112.407-1.79.881-2.202A2.571 2.571 0 0 1 8.5 5c.478 0 1.115.186 1.619.624.474.412.881 1.09.881 2.202C11 9.882 9.6 11 8.5 11S6 9.882 6 7.826ZM1 18.512C1 15.609 3.503 14 8.5 14s7.5 1.609 7.5 4.512C16 19.889 12.644 21 8.5 21S1 19.889 1 18.512Zm2.826-.138a4.808 4.808 0 0 1-.785-.328c.096-.501.37-.861.879-1.173C4.715 16.387 6.158 16 8.5 16s3.786.387 4.58.873c.51.312.783.672.88 1.173a4.81 4.81 0 0 1-.786.328C12.071 18.74 10.418 19 8.5 19c-1.918 0-3.57-.26-4.674-.626Zm10.389-.499v-.001l-.006.007.006-.006Zm.983-11.955A3.47 3.47 0 0 1 17.5 5a3.47 3.47 0 0 1 2.302.92C20.522 6.583 21 7.58 21 8.89c0 2.303-1.567 4.11-3.5 4.11S14 11.193 14 8.89c0-1.311.478-2.307 1.198-2.97Zm1.354 1.473c-.28.257-.552.705-.552 1.496 0 1.479.933 2.111 1.5 2.111s1.5-.632 1.5-2.11c0-.792-.272-1.24-.552-1.497A1.473 1.473 0 0 0 17.5 7c-.262 0-.642.112-.948.393Z" clip-rule="evenodd"/>
  <path fill="#21201F" d="M17.5 20c-.17 0-.338-.003-.504-.009a2.46 2.46 0 0 0 .504-1.48c0-.173-.007-.343-.02-.511h.02c1.337 0 2.456-.213 3.167-.489.116-.045.211-.088.288-.126a1.165 1.165 0 0 0-.494-.758c-.435-.31-1.327-.627-2.961-.627-.202 0-.392.005-.572.014a5.205 5.205 0 0 0-1.566-1.82A10.679 10.679 0 0 1 17.5 14c3.664 0 5.5 1.379 5.5 3.867C23 19.047 20.539 20 17.5 20Z"/>
</svg>
