<svg xmlns="http://www.w3.org/2000/svg" width="22" height="18" fill="none" viewBox="0 0 22 18">
  <path fill="#959595" fill-rule="evenodd" d="M7.5 0c-.922 0-2.035.336-2.931 1.115C3.643 1.92 3 3.155 3 4.826 3 7.78 5.1 10 7.5 10S12 7.78 12 4.826c0-1.67-.643-2.906-1.569-3.711A4.569 4.569 0 0 0 7.5 0ZM5 4.826c0-1.112.407-1.79.881-2.202A2.571 2.571 0 0 1 7.5 2c.478 0 1.115.186 1.619.624.474.412.881 1.09.881 2.202C10 6.882 8.6 8 7.5 8S5 6.882 5 4.826ZM0 15.512C0 12.609 2.503 11 7.5 11s7.5 1.609 7.5 4.512C15 16.889 11.644 18 7.5 18S0 16.889 0 15.512Zm2.826-.138a4.808 4.808 0 0 1-.785-.328c.096-.501.37-.861.879-1.173C3.715 13.387 5.158 13 7.5 13s3.786.387 4.58.873c.51.312.783.672.88 1.173a4.81 4.81 0 0 1-.786.328C11.071 15.74 9.418 16 7.5 16c-1.918 0-3.57-.26-4.674-.626Zm10.389-.499v-.001l-.006.007.006-.006Zm.983-11.955A3.47 3.47 0 0 1 16.5 2a3.47 3.47 0 0 1 2.302.92C19.522 3.583 20 4.58 20 5.89 20 8.192 18.433 10 16.5 10S13 8.193 13 5.89c0-1.311.478-2.307 1.198-2.97Zm1.354 1.473c-.28.257-.552.705-.552 1.496C15 7.368 15.932 8 16.5 8c.567 0 1.5-.632 1.5-2.11 0-.792-.272-1.24-.552-1.497A1.473 1.473 0 0 0 16.5 4c-.262 0-.642.112-.948.393Z" clip-rule="evenodd"/>
  <path fill="#959595" d="M16.5 17c-.17 0-.338-.003-.504-.009a2.46 2.46 0 0 0 .504-1.48c0-.173-.007-.343-.02-.511h.02c1.337 0 2.456-.213 3.167-.489.116-.045.211-.088.288-.126a1.165 1.165 0 0 0-.494-.758c-.435-.31-1.327-.627-2.961-.627-.202 0-.392.005-.572.014a5.205 5.205 0 0 0-1.566-1.82A10.679 10.679 0 0 1 16.5 11c3.664 0 5.5 1.379 5.5 3.867C22 16.047 19.539 17 16.5 17Z"/>
</svg>
