<svg width="24" height="24" viewBox="0 0 24 24" fill="none" xmlns="http://www.w3.org/2000/svg">
<path d="M16 2C17.863 2 18.795 2 19.53 2.305C20.0154 2.50602 20.4564 2.80068 20.8278 3.17215C21.1993 3.54363 21.494 3.98464 21.695 4.47C22 5.205 22 6.137 22 8V16C22 17.863 22 18.795 21.695 19.53C21.2889 20.5102 20.5102 21.2889 19.53 21.695C18.795 22 17.863 22 16 22H8C6.136 22 5.205 22 4.47 21.695C3.98464 21.494 3.54363 21.1993 3.17215 20.8278C2.80068 20.4564 2.50602 20.0154 2.305 19.53C2 18.795 2 17.863 2 16V8C2 6.136 2 5.205 2.305 4.47C2.50602 3.98464 2.80068 3.54363 3.17215 3.17215C3.54363 2.80068 3.98464 2.50602 4.47 2.305C5.205 2 6.137 2 8 2H16ZM8 4C7.04 4 6.421 4 5.947 4.033C5.491 4.064 5.317 4.118 5.234 4.153C4.74436 4.35575 4.3552 4.74454 4.152 5.234C4.118 5.318 4.064 5.491 4.033 5.947C4.001 6.421 4 7.041 4 8V16C4 16.96 4 17.579 4.033 18.053C4.064 18.509 4.118 18.683 4.153 18.766C4.35575 19.2556 4.74454 19.6448 5.234 19.848C5.318 19.882 5.491 19.936 5.947 19.967C6.421 19.999 7.041 20 8 20H16C16.96 20 17.579 20 18.053 19.967C18.509 19.936 18.683 19.882 18.766 19.847C19.2556 19.6443 19.6448 19.2555 19.848 18.766C19.882 18.682 19.936 18.509 19.967 18.053C19.999 17.579 20 16.959 20 16V8C20 7.04 20 6.421 19.967 5.947C19.936 5.491 19.882 5.317 19.847 5.234C19.6443 4.74436 19.2555 4.3552 18.766 4.152C18.682 4.118 18.509 4.064 18.053 4.033C17.579 4.001 16.959 4 16 4H8ZM13 17H6V15H13V17ZM18 13H6V11H18V13ZM18 9H6V7H18V9Z" fill="black"/>
</svg>
