<svg xmlns="http://www.w3.org/2000/svg" width="324" height="325" fill="none" viewBox="0 0 324 325">
  <mask id="a" width="324" height="325" x="0" y="0" maskUnits="userSpaceOnUse" style="mask-type:luminance">
    <path fill="#fff" d="M0 .5h324v324H0V.5Z"/>
  </mask>
  <g mask="url(#a)">
    <g opacity=".5">
      <path stroke="#C9C9C9" stroke-linecap="round" stroke-linejoin="round" stroke-width="2.135" d="M13.414 264.937c23.31.166 38.467.207 61.758.175L64.795 277.84l-28.026 1.195-23.328.258M312.86 110.928c-17.206-.206-29.498.373-48.025.828-3.858.103-12.083.942-14.644 3.208l-3.455 4.917a26.795 26.795 0 0 0-4.747 12.763l-1.369 13.792m11.167.228a40.345 40.345 0 0 1 1.351-4.725 501.047 501.047 0 0 1 57.216-1.985m-10.255 20.155H164.505m144.935 73.152c-15.467.992-17.983-.06-50.591 1.368m18.231-11.395-23.244 1.367m21.649-33.272c.408 2.744 1.102 6.926 1.596 10.939"/>
      <path stroke="#C9C9C9" stroke-linecap="round" stroke-linejoin="round" stroke-width="2.135" d="M260.315 280.207c.115-20.287.115-18.092.115-38.612 0-5.179-5.194-10.264-6.43-15.391-1.152-8.081 3.938-15.11 9.65-21.115a83.786 83.786 0 0 0 4.154-4.681c11.932-14.499 25.321-29.194 42.776-37.107"/>
      <path stroke="#C9C9C9" stroke-linecap="round" stroke-linejoin="round" stroke-width="2.135" d="M37.116 239.642s7.136-4.981 27.757-10.381c20.266-6.101 52.499-12.32 71.83-15.37m100.954-1.14c-4.664 8.492-7.539 13.705-15.696 17.346-8.156 3.642-42.901 10.137-67.255 15.242m0 0-9.73 20.585s-57.299 8.784-80.36 12.002m90.09-32.587c-12.033.579-31.651 1.52-51.872 2.533-32.728 1.644-66.143 3.321-71.798 4.066a16.956 16.956 0 0 0-7.255 2.583 5.958 5.958 0 0 1-3.27 1.034h-9.6m299.214-108.586c-43.882.178-79.953-4.508-125.288 7.413-17.985 3.844-34.671 8.985-51.37 19.244-16.697 11.553-32.099 20.529-47.51 33.367-2.572 2.56-6.42 3.845-8.993 5.13-22.817 7.328-42.16 8.467-64.46 15.668m76.114 21.194-24.384 29.169m246.307-62.124c-1.722 4.837-5 7.2-11.492 7.2H273.83a3.574 3.574 0 0 1-3.631-2.761 56.16 56.16 0 0 1-.393-8.127c0-4.742 5.444-10.077 10.194-11.418 5.724-1.575 30.073 4.599 31.597 8.149.405 1.062-.247 4.673-1.056 6.957Zm-296.92 33.792c-.908-1.739 1.276-4.678 4.875-6.592 3.6-1.914 7.255-2.071 8.16-.301.905 1.77-1.275 4.679-4.877 6.584-3.602 1.905-7.252 2.039-8.158.309Z"/>
      <path stroke="#C9C9C9" stroke-linecap="round" stroke-linejoin="round" stroke-width="2.135" d="M71.071 213.891c53.29-.59 107.255.673 159.903-.591a25.393 25.393 0 0 0 17.988-7.696c19.513-19.491 38.225-40.618 62.53-50.737m-.684 60.618h-39.88M52.422 161.201c-1.43-1.823-3.22-3.25-5.233-4.17a12.752 12.752 0 0 0-6.358-1.13c-8.327.516-11.3 9.656-11.3 9.656-2.87-1.741-6.206-2.286-9.406-1.537-1.7.332-3.299 1.124-4.657 2.307-1.358 1.183-2.433 2.72-3.13 4.475m-1.424-55.899c2.113-3.345 4.9-6.099 8.14-8.043 3.24-1.943 6.843-3.023 10.524-3.154 14.083-.77 20.56 14.016 20.56 14.016 4.555-3.494 10.084-5.072 15.594-4.449 2.915.222 5.735 1.238 8.212 2.957 2.478 1.718 4.535 4.087 5.992 6.896m206.717-12.469.208-52.351c-.291-16.136 6.047-23.967 17.757-27.48 1.446-.425 3.119-.956 5.052-1.524m-26.168 81.356.188-52.288c-.303-16.134-6.965-23.73-18.789-26.808l-5.139-1.349m-.97 2.963-25.237-6.639 1.038-3.82c.114-.43.312-.835.582-1.191.269-.355.608-.654.995-.877a3.387 3.387 0 0 1 2.579-.348l18.694 4.873a3.38 3.38 0 0 1 2.082 1.56 3.372 3.372 0 0 1 .351 2.577l-1.039 3.82-.045.045Z"/>
      <path fill="#FEE9DB" d="M195.875 251.331c.087-.027 5.919-6.061 5.919-6.061l2.831 1.23 3.545 4.061-1.287 2.887-11.008-2.117Z"/>
      <path fill="#9A9A9A" d="M100.336 308.966s17.901 2.972 49.961 3.597c32.735.718 53.216-3.89 53.216-3.89l-4.889-41.337-56.045.236-39.163.106-3.08 41.288Z"/>
      <path fill="#F8F8F6" d="M113.418 264.651c17.85 3.964 36.224 4.065 54.399 2.073 2.994-52.301 5.988-104.574 8.981-156.82l-36.489 1.241s-24.22 38.603-28.571 95.966c-4.352 57.363 1.68 57.54 1.68 57.54Z"/>
      <path stroke="#000" stroke-linecap="round" stroke-linejoin="round" stroke-width="2.135" d="M165.562 130.682a90.492 90.492 0 0 1-9.525 1.402 69.592 69.592 0 0 0-3.445-12.811c-4.087 1.792-8.916 10.797-8.916 10.797a35.837 35.837 0 0 1-6.887-3.411"/>
      <path fill="#BECBDA" d="m205.931 227.772.293-65.132 7.915-26.03c-3.263-6.244-7.223-11.588-11.697-13.807-5.313-4.126-18.326-8.72-18.326-8.72-.671-2.911-1.762-4.23-3.052-6.927-2.016-3.987-7.295-5.176-7.702-5.039l-1.382 13.68s-31.672 72.447-12.735 166.529c13.093.896 29.819.706 42.908-.277 0 .062.02-3.898-1.499-9.927 1.293-1.659-1.081-15.53-.916-23.868 2.735-6.336 7.344-12.074 6.193-20.482Zm-65.51-126.257c-2.737-1.201-8.542 10.708-8.542 10.708s-9.956-2.314-19.486 2.264c-19.375 9.297-35.49 30.032-41.58 36.718-6.535 7.167-16.349 24.336-16.349 24.336s-14.69 20.209-6.06 32.027c7.075 9.683 43.436-17.422 49.734-22.233l-.063 17.315c-3.207 13.662-2.839 48.796-2.839 48.796-.517 8.818 5.395 12.216 5.395 12.216v14.761l22.125 2.074c-.931-121.355 17.734-171.602 17.734-171.602s2.954-6.825-.069-7.38Z"/>
      <path fill="#FEE9DB" d="m174.087 65.74-12.403-9.791-21.501-2.654s-5.675 14.143-7.136 27.324c-1.256 11.219-1.185 13.317 3.12 17.797 1.355 1.442 5.006 3.467 6.52 4.748a57.12 57.12 0 0 0-1.505 8.143c.367 1.279 2.157 3.808 11.265 5.174 13.886 2.105 19.394-2.437 19.394-2.437s.345-12.672 2.911-19.577a62.203 62.203 0 0 0 6.527-9.74l1.81-13.604-9.002-5.382Z"/>
      <path stroke="#000" stroke-linecap="round" stroke-linejoin="round" stroke-width="2.135" d="M160.913 98.439a25.587 25.587 0 0 1-6.813 3.808c-4.58 1.677-10.784 2.412-15.967-1.08-7.373-4.974-6.047-18.06-4.479-26.204a54.542 54.542 0 0 1 7.427-19.57m30.733 58.173c.391-2.493 1.422-14.906 2.239-17.286 0 0 23.248-19.071 21.423-33.358a23.29 23.29 0 0 0-3.346-9.472s1.034-9.92-11.463-16.574c-6.952-4.076-17.799-4.24-22.863-1.664-20.856-.94-20.349 13.094-18.287 16.968 5.976 11.382 16.195 11.886 20.852 11.647-2.672-3.34-2.498-8.997-2.498-8.997 5.165 7.39 15.038 12.47 15.038 12.47a15.635 15.635 0 0 0-3.732 8.319c-.141.905-.19 1.822-.147 2.736.018.494.139.978.353 1.423.21.45.508.852.876 1.184a3.9 3.9 0 0 0 1.279.749c.466.162.959.229 1.451.194a4.506 4.506 0 0 1 2.115.27 4.382 4.382 0 0 1 1.731 1.233c2.425 2.858.598 8.93-4.161 9.27a6.99 6.99 0 0 1-4.789-1.43"/>
      <path fill="#000" d="M154.812 73.775c-.104 1.034-.315 1.966-.633 2.796-.316.804-.801 1.604-1.455 2.4-.652.77-1.521 1.624-2.608 2.56a49.333 49.333 0 0 0-1.971 1.682c-.463.45-.817.858-1.063 1.225-.243.342-.41.704-.501 1.086-.09.383-.164.859-.221 1.428l-.07.698-2.056-.206.066-.66a14.36 14.36 0 0 1 .315-1.966 5.4 5.4 0 0 1 .621-1.505c.308-.465.723-.96 1.246-1.481a37.319 37.319 0 0 1 2.11-1.904c1.345-1.17 2.299-2.211 2.86-3.121.562-.91.903-1.973 1.025-3.188.317-3.155-1.012-4.881-3.985-5.18-1.577-.158-3.108.133-4.593.87l.226-2.25c.683-.295 1.474-.503 2.374-.622.902-.144 1.78-.174 2.634-.088 1.991.2 3.481.963 4.471 2.29 1.018 1.304 1.421 3.016 1.208 5.136Zm-10.193 20.759a1.694 1.694 0 0 1-1.19-.63c-.274-.392-.384-.86-.33-1.403.052-.517.25-.928.594-1.233.347-.331.779-.47 1.296-.42.491.05.874.27 1.148.665.302.37.428.813.376 1.33-.055.544-.268.98-.641 1.307a1.646 1.646 0 0 1-1.253.384Z"/>
      <path fill="#000" d="m179.144 94.248-5.823 4.39.732-6.112s5.642-3.682 3.772-6.737c-1.87-3.055-2.296-3.63-6.298-4.032l-2.506-3.36a9.918 9.918 0 0 1 1.162-6.468 31.802 31.802 0 0 1 2.737-4.584s-12.715-7.187-15.037-12.473c1.964 5.205-1.203 3.335 2.497 9-5.163-.225-16.733-.45-19.772-9.766-3.039-9.317-.298-12.968.858-14.058a18.578 18.578 0 0 1 13.727-4.816l2.622.052s6.343-4.576 19.038-.065c12.694 4.51 14.99 14.278 15.283 18.305 1.702 3.32 4.115 7.76 3.27 13.375-.584 3.884-6.253 14.097-9.7 20.02a25.17 25.17 0 0 1-6.562 7.329Z"/>
      <path fill="#000" d="M138.566 49.113A11.013 11.013 0 0 0 138.02 61c2.577-4.849 3.941-5.949 3.941-5.949l-3.395-5.937Z"/>
      <path stroke="#000" stroke-linecap="round" stroke-linejoin="round" stroke-width="2.135" d="M171.425 114.479s-20.142 9.418-31.116-3.334m-.069-.173c.475-2.426.925-4.641 1.393-6.963m-18.53 162.951s18.901 1.344 33.468-.02m46.943 40.481-2.135-24.43m-99.146-4.269-1.66 30.123m82.5-196.043c1.324 6.47 5.032 15.471 6.779 19.239l-14.815 2.434 6.809 8.878s-9.371 5.702-16.451 18.769c-4.853 8.927-8.426 18.813-10.056 28.84m-29.1-5.185s-1.178-17.953-3.414-31.389a614.03 614.03 0 0 0-3.928-21.725l9.357-6.531-7.229-3.827c6.148-2.587 8.97-5.785 10.405-8.309a43.493 43.493 0 0 1 6.258-9.642c.56-.621 1.055-1.12 1.362-1.44m36.494 7.026a61.943 61.943 0 0 0-9.557 22.341m-53.978 131.961s-5.823-.778-11.673-1.649"/>
      <path stroke="#000" stroke-linecap="round" stroke-linejoin="round" stroke-width="2.135" d="M200.655 272.123a84.856 84.856 0 0 1 1.518 9.917c-13.088.981-29.834 1.185-42.928.287-11.688-52.096-3.093-116.354 6.742-150.015m17.196-19.025c-.661-2.912-.826-3.427-2.116-6.124-2.016-3.986-7.297-5.175-7.703-5.039M45.596 200.363s-1.28-10.627 9.828-27.429c15.56-23.504 33.779-45.538 50.908-55.106 14.838-8.286 25.98-5.599 25.98-5.599m7.896-1.227s-18.428 44.866-17.451 169.495l-22.126-2.074-.412-15.608s-4.762-4.829-4.641-11.25c.336-17.611-.1-44.843 4.065-66.028"/>
      <path fill="#BECBDA" d="m106.333 162.697-23.938-9.34-3.485 5.68a9.61 9.61 0 0 0-9.407 3.427L50.05 186.843c-3.185 3.993-6.066 10.163-5.65 15.254.288 3.55 1.183 10.39 3.36 12.901 6.283 7.283 19.694 7.953 31.723-6.184l20.158-23.277a14.413 14.413 0 0 0 2.331-15.138l4.126-6.943.235-.759Z"/>
      <path fill="#FEE9DB" stroke="#000" stroke-linecap="round" stroke-linejoin="round" stroke-width="2.135" d="m86.87 161.019 10.28-2.753 7.58-.049-5.947 7.44s-7.21.072-11.24-2.531c-4.032-2.602-.672-2.107-.672-2.107h0Z"/>
      <path stroke="#000" stroke-linecap="round" stroke-linejoin="round" stroke-width="2.135" d="m106.333 158.567-23.938-5.21-4.09 6.686c-3.476-.699-8.233 1.375-11.149 4.943L50.05 186.843c-10.278 14.741-3.808 26.511-1.649 29.022 6.282 7.285 18.831 6.159 28.592-3.36 6.72-7.758 16.986-18.401 22.641-26.968 2.108-3.192 3.91-8.854 1.776-13.803l2.316-5.19c.748-1.319 1.845-2.618 2.578-4a4.343 4.343 0 0 0 .029-3.977Z"/>
      <path fill="#FEE9DB" stroke="#000" stroke-linecap="round" stroke-linejoin="round" stroke-width="2.135" d="M80.903 143.679s.224 17.722 8.083 17.742c3.243 0 5.54-.524 6.582-1.039a7.112 7.112 0 0 1 2.542-.672c2.554-.224 7.479-.983 9.7-2.145 5.308-2.778 7.615-9.631 10.527-12.717.728-.773 5.151-5.199 6.459-6.027 1.734-1.093 3.561-2.645 1.74-3.584-1.733-.896-4.822-1.205-7.729.096-3.778 1.691-5.151 3.483-6.652 5.015a4.336 4.336 0 0 1-4.394 1.142l-1.469-.448s-14.333-8.777-25.389 2.637Z"/>
      <path fill="#FEE9DB" stroke="#000" stroke-linecap="round" stroke-linejoin="round" stroke-width="2.135" d="M84.864 133.276c-8.312-1.264-3.774 12.344-2.422 14.091 1.205 1.554 4.466 2 4.684-3.185.125 1.254.732 3.296 3.628 2.939 3.36-.414 3.06-5.398 3.06-5.398s-.164 3.889 3.056 3.976c3.324.09 3.416-5.319 3.416-5.319l.262 2.105a2.72 2.72 0 0 0 2.607 2.404c3.532.074 3.671-7.627 3.671-7.627a17.732 17.732 0 0 0-.338-6.253c-.954-4.161-3.891-4.601-5.526-3.497l-1.234.831c-.869-1.281-2.37-2.112-3.899-1.877-2.89.448-3.42 3.216-3.42 3.216s-1.04-2.078-4.188-1.487c-3.877.73-3.357 5.081-3.357 5.081Z"/>
      <path fill="#FEE9DB" d="m99.723 128.34.609 4.43c.267 1.94.108 5.662-.044 7.615"/>
      <path stroke="#000" stroke-linecap="round" stroke-linejoin="round" stroke-width="2.135" d="m99.723 128.34.609 4.43c.267 1.94.108 5.662-.044 7.615"/>
      <path fill="#FEE9DB" d="M92.402 129.68s.896 4.771 1.001 6.381c.204 2.891.41 5.66.41 5.66"/>
      <path stroke="#000" stroke-linecap="round" stroke-linejoin="round" stroke-width="2.135" d="M92.402 129.68s.896 4.771 1.001 6.381c.204 2.891.41 5.66.41 5.66"/>
      <path fill="#FEE9DB" d="M84.863 133.275s1.864 2.8 2.262 10.905l-2.262-10.905Z"/>
      <path stroke="#000" stroke-linecap="round" stroke-linejoin="round" stroke-width="2.135" d="M84.863 133.275s1.864 2.8 2.262 10.905"/>
      <path fill="#FEE9DB" d="M96.844 154.679s1.055-8.009 6.628-9.677l-6.628 9.677Z"/>
      <path stroke="#000" stroke-linecap="round" stroke-linejoin="round" stroke-width="2.135" d="M96.844 154.679s1.055-8.009 6.628-9.677m-21.378 8.86s.188 8.018 8.287 10.482c13.017 3.962 16.125-2.24 16.125-2.24m-5.094 9.638s-3.346 3.859-13.295 1.715"/>
      <path fill="#FEE9DB" d="M203.987 250.497c-5.073-1.974-14.832-1.769-17.851-1.547-4.958.36-13.691 7.055-13.592 7.975.147 1.38 1.656 2.058 3.792 1.328 2.395-.815 9.08-4.213 9.08-4.213l7.584 1.046.127.811-8.571 1.357a4.871 4.871 0 0 0-1.763.37c-1.72.717-5.647 2.361-8.064 3.458-3.173 1.436-2.91 3.51-.046 4.067 1.846.356 6.048-1.554 11.08-2.593 3.635-.197 9.183-.464 9.183-.464s-3.681 1.138-7.517 2.184a34.421 34.421 0 0 0-5.293 1.944c-3.904 1.792-8.879 2.407-6.008 5.151 1.304 1.25 6.328.309 12.163-1.655 3.877-1.301 8.341-1.886 8.341-1.886a29.742 29.742 0 0 1-6.071 2.813c-4.256 1.035-7.542 2.549-6.944 3.808 1.343 4.826 16.023-1.815 18.814-3.116 5.198-.239 8.897-1.299 12.25-2.75 5.599-2.426 10.417-9.037 6.126-13.373"/>
      <path stroke="#000" stroke-linecap="round" stroke-linejoin="round" stroke-width="2.135" d="M203.987 250.497c-5.073-1.974-14.832-1.769-17.851-1.547-4.958.36-13.691 7.055-13.592 7.975.147 1.38 1.656 2.058 3.792 1.328 2.394-.815 9.08-4.213 9.08-4.213l7.584 1.046.127.811-8.571 1.357a4.871 4.871 0 0 0-1.763.37c-1.72.717-5.647 2.361-8.064 3.458-3.173 1.436-2.91 3.51-.046 4.067 1.846.356 6.048-1.554 11.08-2.593 3.635-.197 9.183-.464 9.183-.464s-3.681 1.138-7.517 2.184a34.421 34.421 0 0 0-5.293 1.944c-3.904 1.792-8.879 2.407-6.008 5.151 1.304 1.25 6.328.309 12.163-1.655 3.877-1.301 8.341-1.886 8.341-1.886a29.742 29.742 0 0 1-6.071 2.813c-4.256 1.035-7.542 2.549-6.944 3.808 1.343 4.826 16.023-1.815 18.814-3.116 5.198-.239 8.897-1.299 12.25-2.75 5.599-2.426 10.417-9.037 6.126-13.373"/>
      <path fill="#BECBDA" d="m197.704 156.221 9.109 12.766 22.679 23.071-15.962 35.951a18.813 18.813 0 0 0-1.102 12.021l.625 2.602-5.664 6.93a19.53 19.53 0 0 0 5.711 8.461c5.019 4.316 10.699 4.657 12.423 4.704l7.082-11.223 1.228-.202a10.621 10.621 0 0 0 7.256-4.791c6.226-9.807 21.456-35.734 23.965-58.37-.974-11.969-26.294-41.434-39.743-57.287-9.351-11.019-26.863-18.966-41.186-17.022l7.008 6.72 6.571 35.669Z"/>
      <path stroke="#000" stroke-linecap="round" stroke-linejoin="round" stroke-width="2.135" d="M212.347 242.068c-2.058 3.501-2.974 5.548-4.631 7.091-.345 2.401 4.21 7.969 7.922 9.915a46.727 46.727 0 0 0 9.928 3.837l6.444-11.172a42.124 42.124 0 0 1-12.847-4.826m-35.979-133.626s4.533.573 6.047.719c16.891 1.61 27.922 5.955 38.045 19.573.822 1.104 23.293 26.672 33.779 43.427a25.326 25.326 0 0 1 3.277 18.701c-5.127 24.162-18.619 44.794-24.133 52.597-3.207 4.531-8.179 3.436-8.179 3.436"/>
      <path stroke="#000" stroke-linecap="round" stroke-linejoin="round" stroke-width="2.135" d="M213.057 242.632s-2.578-2.876-1.343-8.829c2.288-11.008 17.83-41.553 17.83-41.553l-23.613-24.24m23.615 24.241s3.182-5.163 9.472-4.032m-31.446 61.863c-.13-.491-1.635-2.688-2.575-3.64-.829-.835-2.551-.714-3.024-.871"/>
      <path stroke="#000" stroke-linecap="round" stroke-linejoin="round" stroke-width="2.135" d="M199.954 249.31s4.671-7.243 6.089-18.107c.848-6.495-.11-63.193-.11-63.193m-22.751 50.989s1.137 15.469 9.406 25.633m-30.395 22.308s7.364.273 12.543-1.891M144.5 286.905l3.629 25.616"/>
    </g>
    <path fill="#F2D1A5" stroke="#000" stroke-width="2.135" d="M61.584 139.34c-5.223-1.718-12.543-4.093-17.316-5.506l-6.953 15.073c3.623 1.869 5.958 1.643 11.012 1.984l-1.77 8.166c-5.398 1.793-8.018 3.371-11.34 8.25l-3.72 5.582 13.787 13.758 17.347-12.311c1.32-.937 2.302-2.283 2.65-3.865 1.43-6.528 2.083-16.079 2.373-22.425.181-3.945-2.319-7.472-6.07-8.706Z"/>
    <path fill="#F2D1A5" stroke="#000" stroke-linejoin="round" stroke-width="2.135" d="M73.013 133.675c-5.4-1.414-12.654-2.795-17.133-2.818l-7.47 16.625c4.443.863 7.974.113 13.038 0l-1.034 8.293c-5.215 2.267-7.683 4.073-10.556 9.23 0 0-1.28 2.894-.545 5.81.734 2.917 3.54 4.078 3.54 4.078l15.057-5.62c2.338-.873 4.05-2.893 4.617-5.324 1.462-6.255 3.748-14.491 5.42-20.341 1.362-4.762-.144-8.678-4.934-9.933Z"/>
    <path stroke="#000" stroke-linecap="round" stroke-width="2.135" d="M59.875 156.16c1.701-.486 3.768-.164 5.104.486"/>
    <path fill="#F2D1A5" d="M88.435 185.868c6.738-.825 9.485 3.55 8.134 8.552-.37 1.367-1.568 2.292-2.913 2.733-4.084 1.338-7.212 2.874-11.226 5.091a19.307 19.307 0 0 1-7.91 2.346c-11.88.883-19.235 2.555-30.173 8.168-6.274 2.769-9.975 3.221-16.728 3.127h-11.1l-18.292-40.179c12.762-8.802 19.059-19.94 25.982-37.554.889-2.26 2.68-4.054 4.97-4.86 5.487-1.929 11.949-4.042 12.354-4.332 4.482-3.227 9.726-7.287 15.489-11.915 2.643-2.123 6.147-2.813 9.429-1.962 5.34 1.386 10.473 2.385 17.23 3.135 2.737.304 5.275 1.616 7.035 3.736l8.478 10.212c1.501 1.808 1.652 4.452-.21 5.888-1.904 1.47-4.698 2.755-8.047 1.693-6.41-2.032-9.85-7.191-9.85-7.191-5.628-1.251-13.914-1.453-15.79 0-16.101 12.467-18.767 18.848-19.543 35.02 0 13.914 8.627 21.514 25.015 21.262l17.666-2.97Z"/>
    <path fill="#000" d="m88.432 185.868-.13-1.06-.023.003-.024.004.177 1.053Zm-17.666 2.97.016 1.067.08-.001.08-.013-.176-1.053ZM45.75 167.576l-1.066-.051-.001.025v.026h1.067Zm-1.407 45.182.43.976.03-.012.028-.014-.488-.95Zm-16.728 3.127.015-1.067-.008-.001h-.007v1.068Zm-11.1 0-.972.442.285.625h.687v-1.067Zm-18.292-40.179-.606-.879c-.426.293-.58.85-.365 1.321l.97-.442Zm82.86-43.15.888-.592-.238-.357-.418-.093-.232 1.042ZM21.688 154.38a1.068 1.068 0 0 0 1.85 1.064l-.925-.532-.925-.532Zm74.878 40.04 1.03.278c.74-2.736.399-5.472-1.246-7.427-1.66-1.973-4.441-2.905-8.048-2.463l.13 1.06.13 1.059c3.13-.383 5.095.46 6.155 1.719 1.074 1.277 1.43 3.23.82 5.496l1.029.278Zm-8.134-8.552-.176-1.053-17.666 2.97.176 1.053.177 1.053 17.667-2.971-.178-1.052Zm-17.666 2.97-.016-1.067c-8.044.124-14.004-1.684-17.94-5.062-3.913-3.356-5.99-8.404-5.99-15.133h-2.136c0 7.185 2.237 12.894 6.735 16.753 4.474 3.838 11.019 5.705 19.363 5.576l-.016-1.067ZM45.75 167.576l1.067.051c.386-8.052 1.24-13.49 3.899-18.446 2.666-4.97 7.208-9.569 15.23-15.781l-.653-.844-.653-.844c-8.078 6.255-12.92 11.08-15.805 16.46-2.894 5.394-3.761 11.233-4.151 19.353l1.066.051Zm47.9 29.577-.331-1.014c-4.174 1.368-7.366 2.939-11.408 5.171l.515.934.516.935c3.986-2.202 7.049-3.703 11.043-5.012l-.334-1.014Zm-19.134 7.437-.08-1.064c-11.995.891-19.493 2.593-30.58 8.282l.487.95.488.95c10.788-5.537 18-7.179 29.765-8.054l-.08-1.064Zm-30.173 8.168-.43-.976c-3.082 1.36-5.491 2.133-7.937 2.562-2.455.43-4.991.521-8.346.474l-.015 1.067-.014 1.067c3.397.048 6.09-.041 8.743-.505 2.66-.467 5.239-1.304 8.43-2.713l-.43-.976h-.001Zm-16.728 3.127v-1.068h-11.1v2.135h11.1v-1.067Zm-11.1 0 .972-.442-18.291-40.18-.973.443-.97.442 18.29 40.179.972-.442Zm48.778-83.329.653.844c.232-.179.854-.413 1.97-.577 1.057-.155 2.385-.226 3.857-.214 2.944.025 6.347.381 9.08.989l.23-1.042.232-1.042c-2.896-.644-6.45-1.014-9.524-1.039-1.538-.013-2.984.06-4.185.236-1.141.168-2.26.454-2.966 1.001l.653.844Zm15.79 0-.886.592v.003l.005.005.01.016.038.054c.206.288.421.57.647.844a21.597 21.597 0 0 0 1.98 2.101c1.74 1.616 4.335 3.516 7.733 4.594l.323-1.018.323-1.017c-3.011-.955-5.34-2.65-6.924-4.122a19.53 19.53 0 0 1-1.785-1.891c-.153-.186-.3-.375-.442-.568l-.106-.146-.023-.034-.004-.006-.89.593Zm9.85 7.191-.323 1.018c3.812 1.209 6.97-.282 9.024-1.866l-.653-.845-.652-.845c-1.757 1.355-4.187 2.436-7.073 1.521l-.323 1.017Zm8.257-7.581.822-.682-8.48-10.212-.82.682-.82.682 8.476 10.211.822-.681Zm-15.514-13.948.118-1.061c-6.705-.744-11.785-1.733-17.078-3.107l-.27 1.033-.267 1.033c5.39 1.399 10.573 2.407 17.38 3.163l.117-1.061Zm-50.59 16.37-.562-.906c-2.464 1.53-3.384 3.844-4.56 6.988-1.19 3.185-2.728 7.539-6.276 13.71l.924.532.926.532c3.643-6.335 5.232-10.832 6.426-14.027 1.21-3.235 1.93-4.83 3.687-5.922l-.564-.907Zm23.933-17.543-.67-.833c-5.756 4.623-10.982 8.67-15.442 11.882l.623.866.624.866c4.503-3.242 9.763-7.315 15.533-11.949l-.668-.832Zm-15.49 11.915-.623-.866c-3.025 2.178-4.387 3.106-8.381 5.588l.563.906.562.907c4.035-2.507 5.437-3.462 8.503-5.669l-.624-.866Zm0 0-.621-.868c.072-.052.115-.065.038-.03-.05.022-.125.054-.231.096-.21.083-.506.192-.877.326-.74.266-1.75.615-2.926 1.018-2.347.803-5.342 1.817-8.09 2.783l.354 1.007.354 1.007c2.737-.963 5.716-1.97 8.073-2.778 1.176-.402 2.2-.756 2.957-1.028.378-.136.697-.254.939-.35.12-.047.23-.093.323-.134.065-.029.206-.093.329-.181l-.622-.868Zm-17.324 9.192-.993-.391c-6.9 17.552-13.097 28.447-25.594 37.066l.605.879.606.878c13.026-8.983 19.422-20.364 26.37-38.042l-.994-.39Zm4.97-4.86-.353-1.007c-2.598.914-4.614 2.943-5.61 5.476l.993.391.994.39c.78-1.986 2.348-3.545 4.33-4.243l-.353-1.007Zm37.273-18.209.267-1.033c-3.594-.933-7.448-.181-10.366 2.162l.669.833.668.832c2.37-1.903 5.524-2.531 8.494-1.761l.268-1.033Zm24.265 6.871.82-.682c-1.945-2.343-4.74-3.782-7.738-4.115l-.118 1.061-.12 1.061c2.479.275 4.759 1.46 6.334 3.357l.82-.682h.002Zm8.269 16.1.65.845c2.5-1.928 2.124-5.313.379-7.415l-.82.682-.822.681c1.258 1.515 1.183 3.418-.041 4.362l.654.845Zm-16.555 64.19-.517-.934a18.26 18.26 0 0 1-7.474 2.216l.08 1.064.079 1.064a20.408 20.408 0 0 0 8.348-2.475l-.516-.935Zm14.139-7.824-1.031-.278c-.243.898-1.07 1.622-2.215 1.997l.332 1.014.332 1.014c1.547-.507 3.116-1.632 3.612-3.469l-1.03-.278Z"/>
    <path fill="#282828" d="m-1.148 172.109-10.631 1.719c-4.691 26.265-.002 60.504 15.32 67.07l17.824-16.103c-5.527-23.139-10.463-34.776-22.513-52.686Z"/>
    <path stroke="#000" stroke-linejoin="round" stroke-width="2.135" d="m-11.781 173.828 10.63-1.719c12.05 17.91 16.987 29.547 22.514 52.686L3.539 240.898"/>
    <path fill="#FFE5E5" d="m145.894 136.477-75.964.603a2.028 2.028 0 0 0-1.438.608 2.044 2.044 0 0 0-.586 1.447l.368 46.401a2.042 2.042 0 0 0 2.056 2.023l75.964-.603a2.05 2.05 0 0 0 .78-.161 2.056 2.056 0 0 0 1.095-1.113c.101-.248.151-.514.149-.781l-.368-46.401a2.039 2.039 0 0 0-2.056-2.023Z"/>
    <path stroke="#000" stroke-linecap="round" stroke-linejoin="round" stroke-width="2.135" d="m84.258 181.962-1.86.723c-.23.09-.434-.161-.345-.425.101-.296-.16-.555-.398-.395-.735.486-1.805 1.177-1.872 1.115-.067-.062-.348-.954-.64-1.868a1.024 1.024 0 0 0-.762-.691 1.015 1.015 0 0 0-.974.334l-1.866 2.16a1.073 1.073 0 0 1-1.082.357.907.907 0 0 1-.27-.126c-.727-.494-.067-1.583-.067-1.583"/>
    <path stroke="#000" stroke-linecap="round" stroke-linejoin="round" stroke-width="2.135" d="m146.088 136.475-76.35.606a1.836 1.836 0 0 0-1.697 1.153 1.846 1.846 0 0 0-.135.708l.37 46.787a1.85 1.85 0 0 0 1.154 1.697c.225.091.466.137.708.135l76.351-.606a1.844 1.844 0 0 0 1.697-1.154c.09-.224.136-.465.134-.707l-.371-46.787a1.84 1.84 0 0 0-.551-1.302 1.834 1.834 0 0 0-1.31-.53Z"/>
    <path fill="#000" d="M130.942 155.818a1.8 1.8 0 0 0 1.25-3.087 1.8 1.8 0 0 0-2.935.608 1.8 1.8 0 0 0 .994 2.347 1.8 1.8 0 0 0 .691.132Zm9.19-.217a1.792 1.792 0 0 0 1.655-1.125 1.8 1.8 0 0 0-1.684-2.478 1.803 1.803 0 0 0 .029 3.603Zm-4.4 7.115a1.806 1.806 0 0 0 1.656-1.124 1.79 1.79 0 0 0-.01-1.378 1.792 1.792 0 0 0-.982-.968 1.806 1.806 0 0 0-1.96.405 1.802 1.802 0 0 0 1.296 3.065Zm-4.681 6.612a1.792 1.792 0 0 0 1.655-1.125 1.8 1.8 0 0 0-1.684-2.478 1.803 1.803 0 0 0 .029 3.603Zm.055 6.913a1.792 1.792 0 0 0 1.655-1.125 1.8 1.8 0 0 0-1.684-2.478 1.803 1.803 0 0 0 .029 3.603Zm9.189-.073a1.8 1.8 0 0 0 1.25-3.087 1.8 1.8 0 0 0-2.549.02 1.8 1.8 0 0 0 .02 2.549 1.8 1.8 0 0 0 1.279.518Z"/>
    <path fill="#fff" stroke="#000" stroke-linejoin="round" stroke-width="2.135" d="m71.73 150.14 21.078-.167.212 26.681-21.078.167-.211-26.681Z"/>
    <path fill="#8EBB87" d="m78.836 171.297-6.664.853.038 4.803 20.81-.165-.035-4.536-6.945-1.012-7.204.057Z"/>
    <path stroke="#000" stroke-linejoin="round" stroke-width="2.135" d="m71.73 150.14 21.078-.167.212 26.681-21.078.167-.211-26.681Z"/>
    <path fill="#000" d="M76.433 162.171s.85.065 1.16-.653c.311-.718.323-1.874.323-1.874l2.39-.865-.831 1.497s1.169.267 2.833.008c1.664-.258 3.786-.96 3.786-.96s.527.313.756 1.159c.139.474.19.969.154 1.461l.75.291s.517-1.712.49-2.55c-.028-.838-.355-2.268-.355-2.268s.446-1.814-.44-2.646c-.887-.831-1.81-1.192-2.292-1.311-.482-.119-1.432-.234-1.432-.234s-2.278-.8-3.898-.231c-1.62.568-1.706 1.486-1.748 1.456-.04-.031-1.157-.175-1.974 1.304-.816 1.479-.696 2.501-.598 3.226.05.403.142.8.275 1.184-.05.381-.035.768.04 1.145.09.353.307.66.61.861Z"/>
    <path stroke="#000" stroke-linecap="round" stroke-linejoin="round" stroke-width="2.135" d="m86.229 171.102 4.367.528m-11.821-.468-4.357.597"/>
    <path fill="#F2D1A5" d="M85.827 168.322c.056.849.154 2.513.154 2.513-.367 2.162-1.821 3.097-3.545 3.101-1.484.003-3.005-.762-3.518-3.107 0 0 .075-1.586.107-2.124"/>
    <path stroke="#000" stroke-linecap="round" stroke-linejoin="round" stroke-width="2.135" d="M85.827 168.322c.056.849.154 2.513.154 2.513-.367 2.162-1.821 3.097-3.545 3.101-1.484.003-3.005-.762-3.518-3.107 0 0 .075-1.586.107-2.124"/>
    <path fill="#F2D1A5" stroke="#000" stroke-linecap="round" stroke-linejoin="round" stroke-width="2.135" d="M86.125 159.202c-2.213 1.487-6.863 1.19-6.863 1.19a5.13 5.13 0 0 0 1.121-1.798c-.43.227-.877.425-1.336.59a9.375 9.375 0 0 1-1.208.345c-.062.21-.037 1.462-.388 2.109a1.077 1.077 0 0 1-.77.523.84.84 0 0 0-.54.354c-.417.589-.13 1.732.493 2.145.492.326.89.246.89.246s.23 2.317 1.634 3.984c1.292 1.532 3.19 1.862 4.757 1.125 1.6-.752 2.187-1.973 2.594-3.34.193-.666.334-1.345.42-2.032 0 0 1.193-.353 1.15-1.582-.027-.73-.532-.926-.844-.975a.29.29 0 0 1-.236-.284c.005-.468-.036-1.445-.418-2.058a2.237 2.237 0 0 0-.456-.542Z"/>
    <path stroke="#000" stroke-linecap="round" stroke-linejoin="round" stroke-width="2.135" d="M76.341 162.25s-.292-.195-.512-.869c-.21-.642-.089-1.34-.089-1.34s-.818-3.126.668-4.839c.798-.919 1.518-.72 1.6-.767 0 0 .32-1.129 1.921-1.537 2.093-.532 3.847.385 3.847.385s1.822-.145 3.11.879c1.025.814 1.36 2.618 1.046 3.784a9.673 9.673 0 0 1 .036 4.587"/>
    <path stroke="#000" stroke-linejoin="round" stroke-width="2.135" d="m73.79 140.784 11.472-.091.044 5.603-11.473.09-.044-5.602Z"/>
    <path stroke="#000" stroke-linecap="round" stroke-linejoin="round" stroke-width="2.135" d="m92.883 142.232 27.748-.22m18.544-.147-9.339.074m-21.033 5.771 20.812-.165m-31.154 8.519 11.206-.089m-11.15 7.293 20.545-.163m-20.4 18.572 20.546-.163m-20.631-11.042 8.138-.064"/>
  </g>
</svg>
