<svg xmlns="http://www.w3.org/2000/svg" width="378" height="281" fill="none" viewBox="0 0 378 281">
	<path fill="#fff" d="M202.5 100H161l-10 114.5h42.5l9-114.5Z" />
	<path fill="#BECBDA"
		d="M311.72 177.38s-44.7-63.63-61.54-75.31c-16.32-11.33-39.12-11.55-40.5-11.55-.92-1.44-1.91-2.94-2.97-4.5a9.14 9.14 0 0 0-6.18-4.02l-3.2-.52c-1.26 1.09-2.06.53-2.06.53s3.66 8.47 6.18 13.28l.02.03-.12.43v.01a481.81 481.81 0 0 0-5.96 31.5c-1.1 7.02-2.14 10.64-3 18.76v4.19c-1.11 10.65-3.88 43.34-3.54 49.81l2.12 13.9h61.93c-.37-3.5-1.43-12.7-1.79-15.82 4.4 3.64 15.12 11.1 15.59 11.42 1.87 1.3 4.27 3.01 7.04 4.83 12.17 8.04 31.37 18.41 42.53 8.1.12-.1.2-.2.25-.24 2.3-2.2 4.1-4.88 5.25-7.85 3.3-8.48 2.16-20.95-10.05-36.99ZM164.38 106.9c-10.66 41.36-8.14 77.08-5.6 95.03l-.9 4.04c-1.3.4-3.14-2.28-3.79-1.08-.64 1.2-.79 2.6-.4 3.9l1.63 5.49-39.26-.5c-8.1 10.21-15.96 17.88-25.7 17.88-12.66 0-19.64-6.88-22.73-17.38-6.66-22.54 4.6-61.72 15.75-85.02 16.26-34 22.21-39.41 40.37-38.82 2.77 3.68 3.54 5.23 4.16 8.7.66 3.73 1.2 8.26 1.56 13.13l.28 4.69.02.02c.34.32 1.16 1 1.16 1.02.75.6 1.55 1.13 2.38 1.6 2.96 1.68 8.22 2.82 15.91 2.43.3 0 .64-.04.97-.06l-.3.88.36-.9h.22c3.32-8.1 6.16-10.83 5.46-15.65l.1.04-.1-.05v-.06c-.03-.25-.08-.5-.14-.77l-.14.45-.09-.42-.25.8c-.56-.23-.9-.54-1.5-.8-1.68-.73-2.3-1.14-3.91-2.18-.5-.33-.93-1.44-1.39-2.14 5.06 3.55 10.5 5.68 15.87 5.74v-.02Z" />
	<path stroke="#000" stroke-linecap="round" stroke-linejoin="round" stroke-width="2" d="M115.51 214.28h156.34" />
	<path fill="#FEE9DB"
		d="M188.6 84.15c-2.22 6.86-7.28 18.07-17.47 21.64-16.41 5.75-35.7-11.73-42.94-32.44-7.25-20.7.28-36.79 16.7-42.53 9.7-3.4 27.96-14.12 36.56-6.96 4.75 3.96 1.26 22.8 4.24 29.08a9.45 9.45 0 0 1 5.15-1.52c5.25 0 8.37 4.25 8.37 9.5 0 5.26-3.44 9.65-8.65 9.74 0 0 .33 2.48 1.87 6.72a140.8 140.8 0 0 0 8 17.86c-3.86 13.64-13.8 21.14-23.44 19.87-6.73-.9-11.11-6.12-12.68-8.22" />
	<path stroke="#000" stroke-linecap="round" stroke-linejoin="round" stroke-width="2"
		d="M188.6 84.15c-2.22 6.86-7.28 18.07-17.47 21.64-16.41 5.75-35.7-11.73-42.94-32.44-7.25-20.7.28-36.79 16.7-42.53 9.7-3.4 27.96-14.12 36.56-6.96 4.75 3.96 1.26 22.8 4.24 29.08a9.45 9.45 0 0 1 5.15-1.52c5.25 0 8.37 4.25 8.37 9.5 0 5.26-3.44 9.65-8.65 9.74 0 0 .33 2.48 1.87 6.72a140.8 140.8 0 0 0 8 17.86c-3.86 13.64-13.8 21.14-23.44 19.87-6.73-.9-11.11-6.12-12.68-8.22" />
	<path fill="#000"
		d="M197.71 66.49s3.78 5.04 1.14 10.93c-2.63 5.9-4.63 4.5-4.63 4.5l-3.67-11.26s5.74.15 7.16-4.17Z" />
	<path fill="#FEE9DB"
		d="M155.86 106.28c.7 4.82-2.14 7.54-5.46 15.66h-.07c-.4.03-.8.06-1.2.07-7.69.4-12.95-.74-15.91-2.42-.84-.47-1.63-1-2.38-1.6 0-.03-.87-.74-1.2-1.05-.36-6.4-.76-13.08-1.6-17.85-.57-3.16-1.26-4.73-3.5-7.77-.44-.62-.96-1.3-1.55-2.06l-2.6-3.34a9.87 9.87 0 0 1-2.07-6.13 54.96 54.96 0 0 0-1.97-14.82 10.13 10.13 0 0 1-.35-4.49 1.52 1.52 0 0 1 1.14-1.25c.24-.06.5-.06.74 0a6.9 6.9 0 0 1 3.63 2.3c1.05 1.2 1.8 3.92 2.45 6.9l1.53 1.82 1.17 1.38a62.19 62.19 0 0 0 7.27 15.48c1.15.97 2.36 2.02 3.59 3.12a58.36 58.36 0 0 1 7.67 8.22c.92.8 1.86 1.54 2.8 2.23.65.47 1.16 2.21 1.8 2.63 1.62 1.05 2.24 1.46 3.91 2.19.66.3 1.02.64 1.68.87.09.44.42-.48.46-.07-.4-.13.4.15 0 0a9.94 9.94 0 0 0-.15-.83l-.23.69c.16.03.28.07.4.12Z" />
	<path fill="#000"
		d="M196.93 38.76a49.99 49.99 0 0 0-3.31-16.85c-1.83-4.65-6.73-8.25-8.97-9.05-2.58-3.33-14.97-15.11-35.39-12.48-20.51 2.66-30.18 19.44-31.15 21.2-.7.2-1.37.45-2.03.76-11.84 5.6-10.34 34.61.2 37.27l12.14 14.4a19 19 0 0 0 3.3-8.97c.64-7.04-3-12.14-3.98-13.45 1.58-.66 3.1-1.43 4.58-2.29a42.27 42.27 0 0 0 12.03-10.54l-8.12 12.07a1.79 1.79 0 0 0 1.43 2.78c5.62.16 11.2-1 16.28-3.37 9.4-4.44 13.58-9.12 15.55-12.46a6.12 6.12 0 0 0 8.85 3.3c-.62 4.53 0 9.14 1.82 13.35.35.77.9 1.43 1.6 1.92 3.11 2.3 7.41.1 7.74-3.76.01-.16.04-.32.08-.49.14-.56 3.6-.08 4.04-.52 2.15-2.18 3.42-7.4 3.3-12.82Z" />
	<path fill="#000"
		d="M165.59 56.77c-2.46.66-4.8 1.72-6.91 3.14-.18.14-.38.24-.6.3-.23.05-.46.06-.69.03-.23-.03-.46-.1-.67-.22-.19-.13-.36-.29-.5-.47a1.72 1.72 0 0 1 .1-1.94c.14-.18.31-.33.52-.44a21.08 21.08 0 0 1 7.7-3.42c5.77-1.35 11 1.42 10.47 2.27-.53.85-3.54-.74-9.42.75ZM139.16 67.24a23.42 23.42 0 0 1 7.35-1.9c.24 0 .46-.05.67-.15.2-.1.4-.23.55-.4.17-.17.3-.38.39-.6.06-.22.1-.45.09-.68a1.7 1.7 0 0 0-1.29-1.46 1.7 1.7 0 0 0-.69 0c-2.83.17-5.6.91-8.14 2.18-5.33 2.57-6.73 7.6-5.78 7.92.96.33 1.34-2.37 6.85-4.9ZM148.07 74.7c1.38-1.15 1.1-3.48-.44-5.27a3.89 3.89 0 0 0-5.14-1.16c-1.4 1.1-1.13 3.49.42 5.27 1.54 1.77 3.9 2.3 5.16 1.17ZM168.8 66.86c1.38-1.16 1.1-3.49-.44-5.28a3.88 3.88 0 0 0-5.14-1.16c-1.4 1.1-1.13 3.5.42 5.27 1.54 1.78 3.9 2.3 5.16 1.17ZM160.75 81.84c.23-.1.44-.23.61-.41.15-.19.26-.4.33-.64a1.77 1.77 0 0 0-1.21-2.04 4.3 4.3 0 0 1-1.61-.65c-.4-.33-.7-.75-.9-1.22-.63-1.66 1.32-4.45.86-4.75-.47-.3-4.5 3.53-3.58 6.3a6.03 6.03 0 0 0 4.03 3.5c.48.14 1 .11 1.47-.1ZM155.86 89.72c.14-3.29 4.58-4 7.17-4.1 2.85-.15 5.65.7 7.94 2.38l-.13.27a15.5 15.5 0 0 0-3.82-.65c-1.84-.08-3.68.25-5.38.95-1.08.54-2.19 1-3.32 1.41-.75.2-1.53.18-2.27-.02l-.19-.23Z" />
	<path fill="#000"
		d="M148.37 85.09c6.47 1.08 10.97 4.69 14.3 9.75a.6.6 0 0 1-.85.83c-1.36-1.14-2.7-2.34-4.09-3.45a44.86 44.86 0 0 0-7.9-5.13c-.64-.32-1.34-.63-2-.92a.54.54 0 0 1-.25-.24c-.06-.1-.08-.23-.06-.35a.54.54 0 0 1 .49-.45l.36-.03v-.01Z" />
	<path stroke="#000" stroke-linecap="round" stroke-linejoin="round" stroke-width="2"
		d="m232.26 132.92 9.4 5.43s4.22-2.52 12.1 2.01c12.17 6.98 38.05 26.78 50.56 38.48M227.62 162.13l4.24 2.43s14.18-3.1 12.28-16.38" />
	<path stroke="#000" stroke-linecap="round" stroke-linejoin="round" stroke-width="2"
		d="M207.91 89.11s24.38 1.2 41.22 12.88c16.85 11.69 61.54 75.3 61.54 75.3 16.8 22.08 12.65 37.38 4.8 44.85l-.25.24c-13.69 12.65-39.5-5.86-49.6-12.93-1.1-.77-18.1-12.83-28.17-26.92-3.59-5.04-7.08-11.37-5.61-17.86l.02-.1" />
	<path stroke="#000" stroke-linecap="round" stroke-linejoin="round" stroke-width="2"
		d="m195.18 81.22 4.3.7a9.07 9.07 0 0 1 6.19 4.04c4.1 5.99 7.88 12.2 11.33 18.6 1.79 3.37 6.43 11.66 10.63 17.28-6.2 3.04-10.93 3.53-17.13 6.58l7.53 7.6s-24.38 37.39-22.25 77.72" />
	<path stroke="#000" stroke-linecap="round" stroke-linejoin="round" stroke-width="2"
		d="M201.88 89.01s-18.42 71.2-10.9 130.23M160.91 214.28s-11.96-47.83 3.38-107.39M149.82 122.84c3.66-9.27 6.88-11.83 5.68-17.37M149.82 106.12c-1.95-11.8-21.76-23.93-23.48-27.04-1.72-3.1-2.52-14.65-5.04-17.53a6.8 6.8 0 0 0-3.63-2.3 1.54 1.54 0 0 0-1.87 1.26c-.22 1.5-.1 3.04.34 4.49.88 2.92 2 8.67 1.97 14.83a9.87 9.87 0 0 0 2.08 6.12c5.72 7.35 6.82 8.57 7.64 13.19.91 5.15 1.57 11.8 1.91 18.8" />
	<path stroke="#000" stroke-linecap="round" stroke-linejoin="round" stroke-width="2"
		d="M133.61 137.97c-11.83-1.76-13.2-9.7-13.2-9.7l6.87-13.02s5.83 9.76 24.44 7.7l-8.43 15.39 1.37 1.89c1.11 1.53 1.62 3 2.01 4.85.4 1.85.4 3.77.03 5.62-3.98 19.19-31.05 79.59-56.41 80.96-39.88-.02-23.33-68.25-6.99-102.4 16.27-34.02 22.22-39.42 40.37-38.82" />
	<path stroke="#000" stroke-linecap="round" stroke-linejoin="round" stroke-width="2"
		d="M120.4 128.26h-.72a13.49 13.49 0 0 0-11.1 6.58c-11.7 19.52-35.43 57.62-33.64 73.3M141.78 166.74s3.5 24.61 14.7 40.65M194.34 127.17c-5.17 3.19-11.63 3.23-11.63 3.23l-4.13-15.17a32.06 32.06 0 0 0-5.44 14.77c-7.1 0-12.22-5.69-12.22-5.69M237.63 115.3s1.14 9.17 5.23 21.73M107.81 110.08s.72 14.8 3.02 20.35" />
	<path fill="#FEE9DB"
		d="M235.83 141.52c-.34-1.6-6.24-5.24-8.87-6.5-1.45-.7-2.99-1.23-4.57-1.56-4.84-.9-9.48 2-12.43 3.98-12.98 8.67-21.33 12.42-22.4 18.93-.7 4.21-3.26 15.34-5.09 25.65-.45 2.55-6.07 10.72-4.36 13.27.94 1.41 7.01-.02 10.1-8.49 3.43-9.4 6.66-20.34 6.66-20.34-.34 1.79-.46 3.6-.35 5.42.06 1.13.46 4.35.76 5.2a6.67 6.67 0 0 0 3.36 3.8 3.65 3.65 0 0 0 4.9-1.85l1.56.94c3.31 2 7.55-.84 6.8-4.64l-.06-.25.3.42a5.79 5.79 0 0 0 2.6 2.1 4.24 4.24 0 0 0 5.67-3.1c.33-1.37.54-2.75.64-4.15a25.29 25.29 0 0 0 5.42-5.79c1.94-2.87 2.07-6.08 3.44-7.46-.01-.01 8.11-5.11 5.92-15.58Z" />
	<path stroke="#000" stroke-linecap="round" stroke-linejoin="round" stroke-width="2"
		d="M214.14 163.33s-3.64 8.41-2.39 11.74M205.34 160.54l-2.35 5.28c-1.4 4.73-1.64 8.47.24 13.02M194.6 159.37s.7 2.8.17 7.08" />
	<path stroke="#000" stroke-linecap="round" stroke-linejoin="round" stroke-width="2"
		d="M236.1 141.79c-1.93-1.76-6.89-5.61-9.23-6.77-1.46-.7-3-1.23-4.58-1.56-4.83-.9-9.47 2-12.43 3.98-12.98 8.67-21.32 12.42-22.4 18.93-.7 4.21-3.25 15.34-5.08 25.65-.45 2.55-7.53 10.03-4.36 13.27 1.2 1.2 7-.02 10.1-8.49 3.42-9.4 6.65-20.34 6.65-20.34-.34 1.79-.45 3.6-.35 5.42.07 1.13.47 4.35.77 5.2a6.66 6.66 0 0 0 3.35 3.8 3.66 3.66 0 0 0 4.9-1.85l1.56.94c3.32 2 7.56-.84 6.8-4.64 0-.08-.03-.17-.05-.25l.28.42a5.78 5.78 0 0 0 2.6 2.1 4.24 4.24 0 0 0 5.68-3.1c.32-1.37.53-2.75.63-4.15a25.24 25.24 0 0 0 5.42-5.79c1.95-2.87 2.07-6.08 3.43-7.46" />
	<path stroke="#000" stroke-linecap="round" stroke-linejoin="round" stroke-width="2"
		d="M229.8 157.09s10.9-7.08 4.97-20.73c-3.83-7.28-9.28-4.52-10.98-2.73M320.73 214.2H377M1 214.2h66.63M251.52 198.38c.37 3.96 1.41 11.12 1.75 15.27" />
	<path fill="#9A9A9A"
		d="m179.1 196.12-22.06 9.42a4.77 4.77 0 0 0-2.5 6.27l20.7 48.45a4.77 4.77 0 0 0 6.26 2.51l22.05-9.42a4.77 4.77 0 0 0 2.51-6.26l-20.7-48.46a4.77 4.77 0 0 0-6.26-2.51Z" />
	<path fill="#000" d="M162.67 214.67a2.99 2.99 0 1 0-.68-5.93 2.99 2.99 0 0 0 .68 5.93Z" />
	<path stroke="#000" stroke-linecap="round" stroke-linejoin="round" stroke-width="2"
		d="m179.1 196.12-22.06 9.42a4.77 4.77 0 0 0-2.5 6.27l20.7 48.45a4.77 4.77 0 0 0 6.26 2.51l22.05-9.42a4.77 4.77 0 0 0 2.51-6.26l-20.7-48.46a4.77 4.77 0 0 0-6.26-2.51Z" />
	<path fill="#fff"
		d="M269.53 258.51c2-1.73 2.02-2.51 1.82-4.8-.26-2.97-2.98-6.7-4.17-7.3a19.3 19.3 0 0 0-2.22-.94l1.97-11.3s-9.95-5.94-24.75-5.52c-14.8.42-23.65 4.84-23.65 4.84s.85 13.09 4.42 19.63c.58 1.06 1.2 2.15 1.85 3.26-10.8 1.75-18.08 5.01-18.08 8.77 0 5.57 16.04 10.09 35.82 10.09s35.84-4.55 35.84-10.1c0-2.53-3.36-4.85-8.85-6.63Z" />
	<path stroke="#000" stroke-linecap="round" stroke-linejoin="round" stroke-width="2"
		d="M266.6 234.9c0 3.62-.43 7.24-1.25 10.77M257.08 262.15a19.83 19.83 0 0 1-4.28 3.43c-2.76 1.6-6.45 2.4-10.06 2.4-3.61 0-7.32-.8-10.06-2.4-8.67-5.05-13.93-18.24-13.93-30.68" />
	<path stroke="#000" stroke-linecap="round" stroke-linejoin="round" stroke-width="2"
		d="M259.61 244.92c3.06-.04 10.1.5 11.33 6.88.82 4.22-1.4 8.44-6.47 10a17.15 17.15 0 0 1-11.15-.64" />
	<path stroke="#000" stroke-linecap="round" stroke-linejoin="round" stroke-width="2"
		d="M259.06 249.93s5.22.1 5.94 2.87c.46 1.84-.75 3.36-2.93 3.92-2.62.68-5.24-.42-5.24-.42M224.41 256.94c-2.56.38-5.11.9-7.63 1.56-14.09 3.78-14.09 9.9 0 13.65 7.05 1.89 16.29 2.84 25.52 2.84s18.47-.95 25.51-2.84c13.63-3.63 14.07-9.5 1.33-13.28" />
	<path fill="#6D3718"
		d="M262.09 237.74a17.5 17.5 0 0 1-4.34 1.72c-4.16 1.13-9.6 1.7-15.03 1.7-5.44 0-10.87-.56-15.04-1.7a16.7 16.7 0 0 1-4.43-1.77c2.72-2.22 10.38-3.8 19.4-3.8 9.07 0 16.77 1.62 19.44 3.85Z" />
	<path stroke="#000" stroke-linecap="round" stroke-linejoin="round" stroke-width="2"
		d="M242.68 241.4c-6.13 0-12.24-.62-16.93-1.86-9.34-2.5-9.34-6.53 0-9.04 4.68-1.25 10.8-1.87 16.93-1.87 6.12 0 12.23.62 16.91 1.87 9.35 2.5 9.35 6.53 0 9.04-4.68 1.23-10.8 1.87-16.91 1.87Z" />
	<path fill="#205107" stroke="#000" stroke-linejoin="round" stroke-miterlimit="10" stroke-width="2"
		d="m244.55 276.13-6.62 3.87-3.34-.12-6.9-4.07-.18-1.97 6.62-3.86 3.34.11 6.9 4.08.18 1.96Z" />
	<path stroke="#000" stroke-miterlimit="10" stroke-width="2"
		d="M231.77 271.48s-10.61-.63-9.42-5c.68-2.53 6.6-1.43 5.97-18.77-.48-13.38 9.74-10.95 10.47-6.7" />
	<path stroke="#000" stroke-linecap="round" stroke-linejoin="round" stroke-width="2"
		d="M231.75 210.59a3.71 3.71 0 0 0-.67 5.2l2.22 2.89a3.72 3.72 0 0 1-.67 5.2 3.7 3.7 0 0 0-.68 5.2l2.83 3.68M238.8 206.08a4.44 4.44 0 0 0-.8 6.22l2.65 3.45a4.43 4.43 0 0 1-.82 6.21 4.43 4.43 0 0 0-.82 6.22l3.38 4.39" />
</svg>